<mxfile host="app.diagrams.net" agent="Mozilla/5.0 (Windows NT 10.0; Win64; x64; rv:134.0) Gecko/20100101 Firefox/134.0" version="26.0.2">
  <diagram name="Strona-1" id="TuqmJoNOewQfI1aBjjhM">
    <mxGraphModel dx="1434" dy="754" grid="1" gridSize="10" guides="1" tooltips="1" connect="1" arrows="1" fold="1" page="1" pageScale="1" pageWidth="827" pageHeight="1169" math="0" shadow="0">
      <root>
        <mxCell id="0" />
        <mxCell id="1" parent="0" />
        <mxCell id="ajCl-1CLkQapSvP-V7Mr-1" value="&lt;div&gt;TOOLS:&lt;/div&gt;&lt;div&gt;REACT/NEXT.JS&lt;/div&gt;&lt;div&gt;web3forms&lt;/div&gt;&lt;div&gt;shadcn/tailwind&lt;/div&gt;&lt;div&gt;Drizzle ORM&lt;/div&gt;&lt;div&gt;BETTER AUTH/NEXT AUTH&lt;br&gt;&lt;/div&gt;&lt;div&gt;Payload CMS/Sanity&lt;/div&gt;&lt;div&gt;Stripe&lt;/div&gt;&lt;div&gt;Vercel&lt;/div&gt;&lt;div&gt;React Framer&lt;/div&gt;&lt;div&gt;Resend&lt;/div&gt;&lt;div&gt;Tanstack Query&lt;/div&gt;&lt;div&gt;React Hook Form / Zod&lt;br&gt;&lt;/div&gt;&lt;div&gt;&lt;br&gt;&lt;/div&gt;&lt;div&gt;Wordpress&lt;br&gt;&lt;/div&gt;&lt;div&gt;&lt;br&gt;&lt;/div&gt;&lt;div&gt;&lt;br&gt;&lt;/div&gt;" style="rounded=0;whiteSpace=wrap;html=1;" vertex="1" parent="1">
          <mxGeometry x="310" y="300" width="280" height="280" as="geometry" />
        </mxCell>
      </root>
    </mxGraphModel>
  </diagram>
</mxfile>
